# xmcd
#
# Track frame offsets: 
#        150
#        22933
#        40777
#        59743
#        74627
#        91113
#        106742
#        131831
#        149341
#        169992
#
# Disc length: 2444 seconds
#
# Revision: 0
# Processed by: cddbd v1.5.2PL0 Copyright (c) Steve Scherf et al.
# Submitted via: ExactAudioCopy v1.3
#
DISCID=8d098a0a
DTITLE=Mark and Red Porter - Porter Bros Blues
DYEAR=2018
DGENRE=Blues
TTITLE0=Never Thought About Growing Old
TTITLE1=Baby Please Don't Go
TTITLE2=Blues River
TTITLE3=Roadrunner
TTITLE4=Travellin' lady
TTITLE5=Mean Old World
TTITLE6=Let'er Roll
TTITLE7=Hmas Vampire
TTITLE8=Little By Little
TTITLE9=The 16 Piece
EXTD=
EXTT0=
EXTT1=
EXTT2=
EXTT3=
EXTT4=
EXTT5=
EXTT6=
EXTT7=
EXTT8=
EXTT9=
PLAYORDER=
